<svg width="158" height="150" viewBox="0 0 158 150" fill="none" xmlns="http://www.w3.org/2000/svg">
<mask id="mask0_175_429" style="mask-type:luminance" maskUnits="userSpaceOnUse" x="0" y="0" width="144" height="150">
<path d="M0 0H143.771V149.577H0V0Z" fill="white"/>
</mask>
<g mask="url(#mask0_175_429)">
<mask id="mask1_175_429" style="mask-type:luminance" maskUnits="userSpaceOnUse" x="0" y="0" width="144" height="150">
<path d="M71.8853 0C32.1844 0 0 33.4842 0 74.7885C0 116.093 32.1844 149.577 71.8853 149.577C111.586 149.577 143.771 116.093 143.771 74.7885C143.771 33.4842 111.586 0 71.8853 0Z" fill="white"/>
</mask>
<g mask="url(#mask1_175_429)">
<path d="M0 0H143.771V149.577H0V0Z" fill="#BEE4FF"/>
</g>
</g>
<mask id="mask2_175_429" style="mask-type:luminance" maskUnits="userSpaceOnUse" x="14" y="14" width="116" height="121">
<path d="M14.1489 14.7202H129.622V134.857H14.1489V14.7202Z" fill="white"/>
</mask>
<g mask="url(#mask2_175_429)">
<mask id="mask3_175_429" style="mask-type:luminance" maskUnits="userSpaceOnUse" x="14" y="14" width="116" height="121">
<path d="M71.8854 14.7202C39.9987 14.7202 14.1489 41.6139 14.1489 74.7884C14.1489 107.963 39.9987 134.857 71.8854 134.857C103.772 134.857 129.622 107.963 129.622 74.7884C129.622 41.6139 103.772 14.7202 71.8854 14.7202Z" fill="white"/>
</mask>
<g mask="url(#mask3_175_429)">
<path d="M14.1489 14.7202H129.622V134.857H14.1489V14.7202Z" fill="#FFB6E6"/>
</g>
</g>
<mask id="mask4_175_429" style="mask-type:luminance" maskUnits="userSpaceOnUse" x="27" y="28" width="90" height="94">
<path d="M27.4458 28.552H116.325V121.023H27.4458V28.552Z" fill="white"/>
</mask>
<g mask="url(#mask4_175_429)">
<mask id="mask5_175_429" style="mask-type:luminance" maskUnits="userSpaceOnUse" x="27" y="28" width="90" height="94">
<path d="M71.8854 28.552C47.3427 28.552 27.4458 49.2524 27.4458 74.7885C27.4458 100.322 47.3427 121.023 71.8854 121.023C96.428 121.023 116.325 100.322 116.325 74.7885C116.325 49.2524 96.428 28.552 71.8854 28.552Z" fill="white"/>
</mask>
<g mask="url(#mask5_175_429)">
<path d="M27.4458 28.552H116.325V121.023H27.4458V28.552Z" fill="#FFFCA6"/>
</g>
</g>
<mask id="mask6_175_429" style="mask-type:luminance" maskUnits="userSpaceOnUse" x="43" y="46" width="58" height="61">
<path d="M43.0894 46.3127H100.681V106.228H43.0894V46.3127Z" fill="white"/>
</mask>
<g mask="url(#mask6_175_429)">
<mask id="mask7_175_429" style="mask-type:luminance" maskUnits="userSpaceOnUse" x="43" y="46" width="58" height="61">
<path d="M71.8853 46.3127C55.983 46.3127 43.0894 59.7248 43.0894 76.2694C43.0894 92.814 55.983 106.228 71.8853 106.228C87.7877 106.228 100.681 92.814 100.681 76.2694C100.681 59.7248 87.7877 46.3127 71.8853 46.3127Z" fill="white"/>
</mask>
<g mask="url(#mask7_175_429)">
<path d="M43.0894 46.3127H100.681V106.228H43.0894V46.3127Z" fill="#B9FFE3"/>
</g>
</g>
<mask id="mask8_175_429" style="mask-type:luminance" maskUnits="userSpaceOnUse" x="57" y="60" width="30" height="31">
<path d="M57.3267 60.5039H86.444V90.7949H57.3267V60.5039Z" fill="white"/>
</mask>
<g mask="url(#mask8_175_429)">
<mask id="mask9_175_429" style="mask-type:luminance" maskUnits="userSpaceOnUse" x="57" y="60" width="30" height="31">
<path d="M71.8853 60.5039C63.8446 60.5039 57.3267 67.2851 57.3267 75.6505C57.3267 84.016 63.8446 90.7949 71.8853 90.7949C79.926 90.7949 86.444 84.016 86.444 75.6505C86.444 67.2851 79.926 60.5039 71.8853 60.5039Z" fill="white"/>
</mask>
<g mask="url(#mask9_175_429)">
<path d="M57.3267 60.5039H86.444V90.7949H57.3267V60.5039Z" fill="#FFA7A7"/>
</g>
</g>
<mask id="mask10_175_429" style="mask-type:luminance" maskUnits="userSpaceOnUse" x="65" y="68" width="14" height="14">
<path d="M65.6006 68.2495H78.1707V81.325H65.6006V68.2495Z" fill="white"/>
</mask>
<g mask="url(#mask10_175_429)">
<mask id="mask11_175_429" style="mask-type:luminance" maskUnits="userSpaceOnUse" x="65" y="68" width="14" height="14">
<path d="M71.8856 68.2495C68.4153 68.2495 65.6006 71.1779 65.6006 74.7884C65.6006 78.3989 68.4153 81.325 71.8856 81.325C75.356 81.325 78.1707 78.3989 78.1707 74.7884C78.1707 71.1779 75.356 68.2495 71.8856 68.2495Z" fill="white"/>
</mask>
<g mask="url(#mask11_175_429)">
<path d="M65.6006 68.2495H78.1707V81.325H65.6006V68.2495Z" fill="#C794FF"/>
</g>
</g>
<path d="M143.568 33.0536L143.568 33.0537C144.767 35.0619 146.986 36.312 149.234 37.2253C150.367 37.6853 151.533 38.0694 152.614 38.4208C152.684 38.4435 152.753 38.4661 152.822 38.4885C153.83 38.8158 154.749 39.1142 155.517 39.4271C156.351 39.7669 156.93 40.0946 157.244 40.4337C157.392 40.5943 157.464 40.7403 157.489 40.8774C157.514 41.0129 157.501 41.1847 157.401 41.4124C157.192 41.8927 156.635 42.5406 155.523 43.3984C154.425 44.2454 152.838 45.2569 150.65 46.4795C141.899 51.367 133.103 54.2791 125.966 55.0504C122.397 55.4361 119.266 55.2838 116.773 54.5935C114.281 53.9037 112.461 52.6882 111.436 50.9702C110.413 49.2554 110.238 47.1311 110.864 44.708C111.492 42.2806 112.918 39.586 115.046 36.7899C119.301 31.1992 126.302 25.2855 135.049 20.3988C137.238 19.176 138.937 18.3523 140.245 17.855C141.568 17.3521 142.432 17.2069 142.977 17.2725C143.238 17.3039 143.406 17.3815 143.521 17.4746C143.636 17.5678 143.73 17.7032 143.798 17.9043C143.944 18.3306 143.948 18.9731 143.836 19.8399C143.732 20.6385 143.54 21.5564 143.329 22.5652C143.314 22.6339 143.3 22.7031 143.285 22.7726C143.059 23.8542 142.82 25.0244 142.665 26.2053C142.358 28.5508 142.368 31.0419 143.568 33.0536Z" fill="white" stroke="#292C31"/>
<path d="M71.5859 77.7578C70.6922 77.7578 69.8275 77.2944 69.3467 76.463C68.6333 75.2189 69.0559 73.632 70.2928 72.9175L144.124 30.1078C145.355 29.3873 146.937 29.8157 147.652 31.0579C148.368 32.2982 147.943 33.885 146.706 34.6035L72.8771 77.4132C72.4699 77.6468 72.026 77.7578 71.5859 77.7578Z" fill="#292C31"/>
</svg>
