<svg xmlns="http://www.w3.org/2000/svg" xmlns:xlink="http://www.w3.org/1999/xlink" width="1536" zoomAndPan="magnify" viewBox="0 0 1152 1151.999944" height="1536" preserveAspectRatio="xMidYMid meet" version="1.0"><defs><clipPath id="f9a964aa58"><path d="M 201.742188 153.863281 L 950.257812 153.863281 L 950.257812 902.378906 L 201.742188 902.378906 Z M 201.742188 153.863281 " clip-rule="nonzero"/></clipPath><clipPath id="a089fb1bf3"><path d="M 576 153.863281 C 369.304688 153.863281 201.742188 321.421875 201.742188 528.121094 C 201.742188 734.816406 369.304688 902.378906 576 902.378906 C 782.695312 902.378906 950.257812 734.816406 950.257812 528.121094 C 950.257812 321.421875 782.695312 153.863281 576 153.863281 Z M 576 153.863281 " clip-rule="nonzero"/></clipPath><clipPath id="57f43c7921"><path d="M 275.410156 227.527344 L 876.589844 227.527344 L 876.589844 828.710938 L 275.410156 828.710938 Z M 275.410156 227.527344 " clip-rule="nonzero"/></clipPath><clipPath id="c437ff1659"><path d="M 576 227.527344 C 409.988281 227.527344 275.410156 362.109375 275.410156 528.121094 C 275.410156 694.132812 409.988281 828.710938 576 828.710938 C 742.011719 828.710938 876.589844 694.132812 876.589844 528.121094 C 876.589844 362.109375 742.011719 227.527344 576 227.527344 Z M 576 227.527344 " clip-rule="nonzero"/></clipPath><clipPath id="53e29e23d0"><path d="M 344.632812 296.75 L 807.367188 296.75 L 807.367188 759.488281 L 344.632812 759.488281 Z M 344.632812 296.75 " clip-rule="nonzero"/></clipPath><clipPath id="3ec3020244"><path d="M 576 296.75 C 448.21875 296.75 344.632812 400.339844 344.632812 528.121094 C 344.632812 655.902344 448.21875 759.488281 576 759.488281 C 703.78125 759.488281 807.367188 655.902344 807.367188 528.121094 C 807.367188 400.339844 703.78125 296.75 576 296.75 Z M 576 296.75 " clip-rule="nonzero"/></clipPath><clipPath id="1f84b40caf"><path d="M 426.085938 385.617188 L 725.914062 385.617188 L 725.914062 685.449219 L 426.085938 685.449219 Z M 426.085938 385.617188 " clip-rule="nonzero"/></clipPath><clipPath id="d6c4e5f086"><path d="M 576 385.617188 C 493.203125 385.617188 426.085938 452.738281 426.085938 535.535156 C 426.085938 618.332031 493.203125 685.449219 576 685.449219 C 658.796875 685.449219 725.914062 618.332031 725.914062 535.535156 C 725.914062 452.738281 658.796875 385.617188 576 385.617188 Z M 576 385.617188 " clip-rule="nonzero"/></clipPath><clipPath id="4f8b48ed4b"><path d="M 500.207031 456.640625 L 651.792969 456.640625 L 651.792969 608.222656 L 500.207031 608.222656 Z M 500.207031 456.640625 " clip-rule="nonzero"/></clipPath><clipPath id="d578f51a5f"><path d="M 576 456.640625 C 534.140625 456.640625 500.207031 490.574219 500.207031 532.433594 C 500.207031 574.289062 534.140625 608.222656 576 608.222656 C 617.859375 608.222656 651.792969 574.289062 651.792969 532.433594 C 651.792969 490.574219 617.859375 456.640625 576 456.640625 Z M 576 456.640625 " clip-rule="nonzero"/></clipPath><clipPath id="d0fef87d6c"><path d="M 543.285156 495.402344 L 608.714844 495.402344 L 608.714844 560.835938 L 543.285156 560.835938 Z M 543.285156 495.402344 " clip-rule="nonzero"/></clipPath><clipPath id="b3a0316bee"><path d="M 576 495.402344 C 557.929688 495.402344 543.285156 510.050781 543.285156 528.121094 C 543.285156 546.1875 557.929688 560.835938 576 560.835938 C 594.070312 560.835938 608.714844 546.1875 608.714844 528.121094 C 608.714844 510.050781 594.070312 495.402344 576 495.402344 Z M 576 495.402344 " clip-rule="nonzero"/></clipPath></defs><g clip-path="url(#f9a964aa58)"><g clip-path="url(#a089fb1bf3)"><path fill="#c06ba4" d="M 201.742188 153.863281 L 950.257812 153.863281 L 950.257812 902.378906 L 201.742188 902.378906 Z M 201.742188 153.863281 " fill-opacity="1" fill-rule="nonzero"/></g></g><g clip-path="url(#57f43c7921)"><g clip-path="url(#c437ff1659)"><path fill="#9b51eb" d="M 275.410156 227.527344 L 876.589844 227.527344 L 876.589844 828.710938 L 275.410156 828.710938 Z M 275.410156 227.527344 " fill-opacity="1" fill-rule="nonzero"/></g></g><g clip-path="url(#53e29e23d0)"><g clip-path="url(#3ec3020244)"><path fill="#858bfb" d="M 344.632812 296.75 L 807.367188 296.75 L 807.367188 759.488281 L 344.632812 759.488281 Z M 344.632812 296.75 " fill-opacity="1" fill-rule="nonzero"/></g></g><g clip-path="url(#1f84b40caf)"><g clip-path="url(#d6c4e5f086)"><path fill="#6bc0ba" d="M 426.085938 385.617188 L 725.914062 385.617188 L 725.914062 685.449219 L 426.085938 685.449219 Z M 426.085938 385.617188 " fill-opacity="1" fill-rule="nonzero"/></g></g><g clip-path="url(#4f8b48ed4b)"><g clip-path="url(#d578f51a5f)"><path fill="#eb6d51" d="M 500.207031 456.640625 L 651.792969 456.640625 L 651.792969 608.222656 L 500.207031 608.222656 Z M 500.207031 456.640625 " fill-opacity="1" fill-rule="nonzero"/></g></g><g clip-path="url(#d0fef87d6c)"><g clip-path="url(#b3a0316bee)"><path fill="#fbe285" d="M 543.285156 495.402344 L 608.714844 495.402344 L 608.714844 560.835938 L 543.285156 560.835938 Z M 543.285156 495.402344 " fill-opacity="1" fill-rule="nonzero"/></g></g></svg>